<svg width="25" height="24" viewBox="0 0 25 24" fill="none" xmlns="http://www.w3.org/2000/svg">
<path d="M6.6174 18.9157H0.473394C-0.0300199 18.9157 -0.0417956 18.9157 0.0347468 18.4064C0.441011 15.7529 0.852181 13.1073 1.26826 10.4695C1.44195 9.38322 1.52732 8.27041 1.92476 7.2312C3.43794 3.25688 6.27884 0.854626 10.4798 0.0950891C10.908 0.025699 11.3415 -0.005825 11.7752 0.00088295C15.7868 0.00088295 19.8004 0.00088295 23.8159 0.00088295C24.337 0.00088295 24.3605 0.0332663 24.2281 0.545512C23.9596 1.48756 23.3925 2.31695 22.612 2.90892C21.8316 3.50089 20.88 3.82343 19.9005 3.82801C17.0743 3.82801 14.2275 3.82801 11.3925 3.82801C10.51 3.83066 9.63769 4.01714 8.83124 4.37558C7.31806 5.0468 6.44371 6.27148 5.8873 7.76406C5.3309 9.25663 5.1366 10.7433 4.94524 12.2712C4.83926 13.0985 4.75388 13.9287 4.65085 14.753C4.61552 14.9973 4.65085 15.0915 4.92169 15.1004C6.84997 15.171 8.77825 15.2976 10.7065 15.2211C12.2168 15.1622 13.7064 14.9532 15.0959 14.2937C15.8365 13.9593 16.4976 13.4714 17.0355 12.8624C17.5735 12.2534 17.976 11.5371 18.2165 10.761C18.4939 9.78437 18.9812 8.88012 19.6443 8.11144C20.0154 7.67001 20.478 7.31449 21 7.06949C21.5221 6.82448 22.0911 6.69584 22.6678 6.69246C22.8473 6.69246 22.9798 6.7219 22.9416 6.9427C22.6766 8.47943 22.6472 10.0721 22.1143 11.547C20.5776 15.7804 17.563 18.2533 13.0764 18.8951C12.7957 18.9236 12.5133 18.9315 12.2315 18.9186H6.6174V18.9157Z" fill="#1D1D38"/>
<path d="M3.35847 23.9999C3.11715 24.0018 2.87784 23.956 2.65433 23.865C2.43082 23.774 2.22755 23.6396 2.05622 23.4697C1.8849 23.2997 1.74892 23.0975 1.65612 22.8748C1.56333 22.652 1.51556 22.413 1.51556 22.1717C1.51595 21.9074 1.56844 21.6458 1.67003 21.4018C1.77162 21.1578 1.92031 20.9362 2.10761 20.7497C2.29491 20.5633 2.51713 20.4155 2.76157 20.315C3.00601 20.2145 3.26787 20.1632 3.53216 20.1639C4.01925 20.1662 4.48596 20.3597 4.83176 20.7028C5.17756 21.0458 5.37479 21.511 5.38096 21.998C5.38097 22.2627 5.32852 22.5247 5.22663 22.7689C5.12474 23.0131 4.97543 23.2347 4.78735 23.4209C4.59927 23.6071 4.37615 23.7541 4.13089 23.8535C3.88562 23.9529 3.62309 24.0026 3.35847 23.9999V23.9999Z" fill="#1D1D38"/>
<path d="M14.622 23.9999C14.378 24.0003 14.1364 23.9526 13.9109 23.8596C13.6854 23.7666 13.4804 23.6301 13.3076 23.4579C13.1348 23.2857 12.9977 23.0811 12.9039 22.8559C12.8102 22.6306 12.7618 22.3892 12.7614 22.1452C12.7752 21.617 12.9939 21.1148 13.3714 20.745C13.7489 20.3752 14.2555 20.1668 14.7839 20.1639C15.2769 20.1663 15.7489 20.3635 16.0969 20.7127C16.445 21.0618 16.6408 21.5345 16.6415 22.0275C16.6315 22.5556 16.414 23.0586 16.0361 23.4277C15.6582 23.7968 15.1502 24.0023 14.622 23.9999V23.9999Z" fill="#1D1D38"/>
</svg>
