<svg width="236" height="184" viewBox="0 0 236 184" fill="none" xmlns="http://www.w3.org/2000/svg">
<rect width="236" height="184" fill="#F9F9F9"/>
<path fill-rule="evenodd" clip-rule="evenodd" d="M101.743 66.1434L115.618 69.9865L145.795 106.405L123.141 124.71L92.9641 88.2915L91.8956 74.1003L101.743 66.1434ZM100.822 61.6082L87.5763 72.311L88.9024 89.9241L119.898 127.331L122.518 130.493L125.761 127.873L148.415 109.568L151.658 106.947L149.038 103.785L118.042 66.378L100.822 61.6082ZM107.178 82.8245C109.384 81.0303 109.606 77.6761 107.674 75.3328C105.742 72.9896 102.388 72.5445 100.182 74.3387C97.9767 76.133 97.7547 79.4871 99.6865 81.8304C101.618 84.1737 104.973 84.6188 107.178 82.8245Z" fill="black"/>
</svg>
