<svg width="84" height="80" viewBox="0 0 84 80" fill="none" xmlns="http://www.w3.org/2000/svg">
<path d="M42.944 9.2596L31.2626 20.823V14.3333L29.3747 1L28.1947 14.3333L25.9528 1L24.0649 14.3333V27.0767L18.0472 32.3865V23.1829L16.2773 9.96756L13.6814 23.1829V35.5723L8.84366 40.1741V32.3865L7.54573 18.8171L5.65782 30.9705L3.53392 18.8171L2 32.3865V76.9883L9.55163 76.8703V70.4986C9.86628 69.712 10.944 68.1387 12.7375 68.1387C14.531 68.1387 15.294 69.712 15.4513 70.4986V76.9883H21.1151V70.4986C21.2724 69.712 22.0826 68.1387 24.0649 68.1387C26.0472 68.1387 26.8574 69.712 27.0148 70.4986V76.9883H36.9263V64.1269C37.6736 62.9076 39.7817 60.4691 42.236 60.4691" stroke="black" stroke-width="4"/>
<path d="M41.2921 9.2596L52.9949 20.823V14.3333L54.8662 1L56.0358 14.3333L58.258 1L60.1293 14.3333V27.0767L66.094 32.3865V23.1829L67.8484 9.96756L70.4214 23.1829V35.5723L75.2166 40.1741V32.3865L76.5031 18.8171L78.3744 30.9705L80.4796 18.8171L82.0001 32.3865V76.9883L74.5149 76.8703V70.4986C74.203 69.712 73.1348 68.1387 71.3571 68.1387C69.5793 68.1387 68.823 69.712 68.6671 70.4986V76.9883H63.0532V70.4986C62.8972 69.712 62.0941 68.1387 60.1293 68.1387C58.1644 68.1387 57.3613 69.712 57.2054 70.4986V76.9883H47.381V64.1269C46.6403 62.9076 44.5507 60.4691 42.118 60.4691" stroke="black" stroke-width="4"/>
</svg>
