<svg width="35" height="35" viewBox="0 0 35 35" fill="none" xmlns="http://www.w3.org/2000/svg">
<g clip-path="url(#clip0)">
<path d="M17.5 0C27.165 0 35 7.83502 35 17.5C35 27.165 27.165 35 17.5 35C7.83502 35 0 27.165 0 17.5C0 7.83502 7.83502 0 17.5 0Z" fill="#D80027"/>
<path d="M9.57874 24.3458L11.0895 19.6973H15.9772L12.026 16.8194L13.5367 12.171L9.57874 15.0421L5.62073 12.171L7.13831 16.8194L3.1803 19.6973H8.06799L9.57874 24.3458Z" fill="#FFDA44"/>
<path d="M20.7471 7.89105L19.5918 9.31293L17.8828 8.64984L18.874 10.1879L17.7188 11.6166L19.4893 11.145L20.4873 12.683L20.583 10.851L22.3604 10.3793L20.6445 9.72308L20.7471 7.89105Z" fill="#FFDA44"/>
<path d="M23.0463 12.0638L23.5931 13.8138L22.0961 14.8734L23.9281 14.9008L24.4681 16.6508L25.0629 14.9144L26.8949 14.9349L25.4252 13.8412L26.0131 12.1049L24.516 13.1644L23.0463 12.0638Z" fill="#FFDA44"/>
<path d="M26.1412 22.1535L25.3346 20.506L26.6471 19.2277L24.8356 19.4875L24.0289 17.8469L23.7145 19.6516L21.8961 19.9113L23.5231 20.7658L23.2086 22.5773L24.5211 21.299L26.1412 22.1535Z" fill="#FFDA44"/>
<path d="M20.7965 27.1427L20.6598 25.3175L22.3619 24.6271L20.5778 24.1896L20.4479 22.3575L19.484 23.9161L17.6998 23.4786L18.8824 24.88L17.9117 26.4318L19.6139 25.7413L20.7965 27.1427Z" fill="#FFDA44"/>
</g>
<defs>
<clipPath id="clip0">
<rect width="35" height="35" fill="white" transform="matrix(1 0 0 -1 0 35)"/>
</clipPath>
</defs>
</svg>
