<svg width="105" height="125" viewBox="0 0 105 125" fill="none" xmlns="http://www.w3.org/2000/svg">
<path d="M76.3494 104.59C77.6506 103.279 80.2528 99.9072 80.2528 96.9101C80.2528 93.913 78.2701 89.5422 77.2788 87.7315H74.6766L70.5874 85.6709L70.0297 81.3626L66.8699 80.426L61.2937 74.4318H54.974C52.6815 72.4962 47.7621 68.063 46.4238 65.8152C45.0855 63.5673 38.0595 58.0102 34.7138 55.5126L30.2528 42.5876L20.7733 38.654L12.4089 45.0228L8.87732 43.8989L9.99257 41.6511L4.41637 40.5271C4.41637 38.3418 4.52789 33.8961 4.97398 33.5964C5.53158 33.2217 2 30.4119 2 29.4753C2 28.5387 6.46097 27.4148 6.83271 26.4782C7.13011 25.729 4.72616 23.4187 3.48701 22.3572C3.11526 22.2948 2.78069 21.7203 4.41637 19.9221C6.46098 17.6743 10.922 18.4235 13.7101 18.4235C15.9405 18.4235 15.5068 17.1747 15.0112 16.5503L13.7101 15.0518C15.1351 13.4283 18.0595 10.4812 18.3569 11.68C18.6543 12.8789 20.0917 15.4264 20.7733 16.5503L22.2602 18.4235C22.6939 17.7991 23.5613 16.2506 23.5613 15.0518C23.5613 13.853 23.5613 13.0538 23.5613 12.804L26.5353 11.68L27.8364 14.1152L31.5539 15.0518L30.2528 12.804L31.5539 10.7435H33.4126L33.7844 6.9971H35.829L38.4312 8.87029L39.3606 6.24782L46.4238 5.49855L49.7695 4V8.30833C50.8848 9.24492 53.3755 11.1556 54.4164 11.3054C55.4573 11.4553 58.9393 11.6176 60.5502 11.68L62.9665 14.1152L61.2937 15.0518V20.6714L64.0818 23.6685L61.2937 25.9163V23.6685L56.8327 22.3572L52.5576 25.9163C51.8761 25.7914 50.3643 25.9537 49.7695 27.6022C49.1747 29.2506 51.3804 30.4119 52.5576 30.7866L50.513 33.971C50.8228 35.3447 51.5167 38.4292 51.8141 39.7779C52.1859 41.4637 61.2937 47.6453 62.4089 49.5184C63.3011 51.017 64.3916 55.2629 64.8253 57.1985L73.0037 64.5039L81.1822 65.0659L82.6691 67.3137L81.1822 70.4981L88.6171 73.6825L96.4238 78.5528L102 84.7344L99.7695 90.5412L95.6803 89.0427C96.176 87.9188 96.684 85.4836 94.7509 84.7344C92.8178 83.9851 89.8563 82.7987 88.6171 82.2992L86.2007 85.6709V89.6046L90.8476 93.7256L90.29 98.9706L85.6431 100.656L84.7138 104.59L79.1375 109.46L77.2788 108.898L76.3494 104.59ZM76.3494 104.59L70.0297 105.527L64.0818 108.149L57.5762 105.527H54.974H51.8141L49.2119 110.397L51.8141 114.893H57.5762L61.2937 119.201H65.197L68.171 122.947H72.632L76.3494 117.328L73.3755 114.143L76.3494 109.46V104.59ZM23.5613 71.9967L21.5167 75.3684L15.3829 76.1177L13.5242 80.426L17.2416 83.6104C16.8699 86.9197 16.1264 93.7256 16.1264 94.4749C16.1264 95.2242 17.4895 98.034 18.171 99.3452H21.5167L23.5613 97.2847L28.7658 96.3481V83.6104L30.2528 81.3626C29.6332 79.3645 28.171 75.1811 27.2788 74.4318C26.3866 73.6825 24.4287 72.4962 23.5613 71.9967Z" stroke="black" stroke-width="4"/>
</svg>
