<svg width="35" height="35" viewBox="0 0 35 35" fill="none" xmlns="http://www.w3.org/2000/svg">
<g clip-path="url(#clip0)">
<path d="M17.4982 0.000488281C27.1632 0.000488281 34.9982 7.8355 34.9982 17.5005C34.9982 27.1655 27.1632 35.0005 17.4982 35.0005C7.83319 35.0005 -0.00183105 27.1655 -0.00183105 17.5005C-0.00183105 7.8355 7.83319 0.000488281 17.4982 0.000488281Z" fill="#F0F0F0"/>
<path d="M35.0006 17.5009C35.0006 25.0253 30.2515 31.4398 23.5875 33.9124V1.08929C30.2515 3.56199 35.0006 9.97649 35.0006 17.5009Z" fill="#D80027"/>
<path d="M-0.00183105 17.5009C-0.00183105 9.97649 4.74723 3.56199 11.4112 1.08936V33.9124C4.74723 31.4398 -0.00183105 25.0253 -0.00183105 17.5009Z" fill="#6DA544"/>
</g>
<defs>
<clipPath id="clip0">
<rect width="35" height="35" fill="white" transform="matrix(1 0 0 -1 0 35)"/>
</clipPath>
</defs>
</svg>
