<svg width="35" height="35" viewBox="0 0 35 35" fill="none" xmlns="http://www.w3.org/2000/svg">
<g clip-path="url(#clip0)">
<path d="M17.4994 0.000488281C27.1644 0.000488281 34.9994 7.8355 34.9994 17.5005C34.9994 27.1655 27.1644 35.0005 17.4994 35.0005C7.83441 35.0005 -0.000610352 27.1655 -0.000610352 17.5005C-0.000610352 7.8355 7.83441 0.000488281 17.4994 0.000488281Z" fill="#F0F0F0"/>
<path d="M17.4986 9.8927C21.7007 9.8927 25.1072 13.2992 25.1072 17.5014C25.1072 21.7035 21.7007 25.11 17.4986 25.11C13.2964 25.11 9.88989 21.7035 9.88989 17.5014C9.88989 13.2992 13.2964 9.8927 17.4986 9.8927Z" fill="#D80027"/>
</g>
<defs>
<clipPath id="clip0">
<rect width="35" height="35" fill="white" transform="matrix(1 0 0 -1 0 35)"/>
</clipPath>
</defs>
</svg>
