<svg width="35" height="35" viewBox="0 0 35 35" fill="none" xmlns="http://www.w3.org/2000/svg">
<g clip-path="url(#clip0)">
<path d="M17.4993 -0.00131226C27.1643 -0.00131226 34.9993 7.8337 34.9993 17.4987C34.9993 27.1637 27.1643 34.9987 17.4993 34.9987C7.83434 34.9987 -0.000671387 27.1637 -0.000671387 17.4987C-0.000671387 7.8337 7.83434 -0.00131226 17.4993 -0.00131226Z" fill="#F0F0F0"/>
<path d="M23.5871 17.5008C23.5871 15.9791 20.8618 12.1748 17.5001 12.1748C14.1384 12.1748 11.4132 15.9791 11.4132 17.5008C11.4132 20.8626 14.1384 23.5878 17.5001 23.5878C20.8618 23.5878 23.5871 20.8626 23.5871 17.5008Z" fill="#D80027"/>
<path d="M23.5871 17.4984C23.5871 14.1366 20.8618 11.4115 17.5001 11.4115C14.1384 11.4115 11.4132 14.1366 11.4132 17.4984" fill="#0052B4"/>
<path d="M23.9496 12.1208L25.5634 13.7346L26.6392 12.6588L25.0255 11.045L23.9496 12.1208Z" fill="black"/>
<path d="M21.2592 9.42914L22.8729 11.0429L23.9488 9.96705L22.335 8.35326L21.2592 9.42914Z" fill="black"/>
<path d="M27.1791 8.89136L28.7929 10.5051L29.8688 9.42927L28.255 7.81548L27.1791 8.89136Z" fill="black"/>
<path d="M24.4879 6.20093L26.1017 7.81472L27.1776 6.73884L25.5638 5.12505L24.4879 6.20093Z" fill="black"/>
<path d="M25.5648 10.5052L27.1786 12.119L28.2544 11.0431L26.6406 9.42931L25.5648 10.5052Z" fill="black"/>
<path d="M22.8735 7.81525L24.4873 9.42904L25.5632 8.35316L23.9494 6.73937L22.8735 7.81525Z" fill="black"/>
<path d="M27.1858 22.8765L22.8823 27.1799L23.9582 28.2558L28.2617 23.9523L27.1858 22.8765Z" fill="black"/>
<path d="M22.8815 23.9526L21.2677 25.5664L22.3435 26.6422L23.9573 25.0284L22.8815 23.9526Z" fill="black"/>
<path d="M25.5714 21.2613L23.9576 22.8751L25.0334 23.9509L26.6472 22.3371L25.5714 21.2613Z" fill="black"/>
<path d="M26.1097 27.1813L24.4959 28.7951L25.5718 29.8709L27.1856 28.2572L26.1097 27.1813Z" fill="black"/>
<path d="M28.8014 24.4908L27.1876 26.1046L28.2635 27.1805L29.8773 25.5667L28.8014 24.4908Z" fill="black"/>
<path d="M6.20544 10.5093L10.5089 6.20582L9.43302 5.12994L5.12957 9.4334L6.20544 10.5093Z" fill="black"/>
<path d="M10.5061 9.43323L12.1199 7.81944L11.0441 6.74361L9.43028 8.3574L10.5061 9.43323Z" fill="black"/>
<path d="M7.81567 12.1237L9.42946 10.5099L8.35359 9.43399L6.7398 11.0478L7.81567 12.1237Z" fill="black"/>
<path d="M9.43005 13.7388L13.7335 9.43537L12.6576 8.3595L8.35418 12.663L9.43005 13.7388Z" fill="black"/>
<path d="M10.5061 28.8005L6.20265 24.4971L5.12677 25.573L9.43023 29.8764L10.5061 28.8005Z" fill="black"/>
<path d="M12.1218 27.1849L7.81831 22.8814L6.74243 23.9573L11.0459 28.2608L12.1218 27.1849Z" fill="black"/>
<path d="M13.7356 25.571L9.43214 21.2675L8.35631 22.3434L12.6598 26.6468L13.7356 25.571Z" fill="black"/>
</g>
<defs>
<clipPath id="clip0">
<rect width="35" height="35" fill="white" transform="matrix(1 0 0 -1 0 35)"/>
</clipPath>
</defs>
</svg>
