<svg width="84" height="25" viewBox="0 0 84 25" fill="none" xmlns="http://www.w3.org/2000/svg">
<rect width="84" height="25" rx="4" fill="black"/>
<path d="M13.436 11.696V16.112H20.612V11.696H13.436ZM19.772 15.344H14.276V14.288H19.772V15.344ZM14.276 13.556V12.464H19.772V13.556H14.276ZM12.092 8.276V9.068H15.8C14.864 9.908 13.436 10.616 11.516 11.168L11.972 11.936C14.072 11.18 15.596 10.22 16.532 9.068H16.604V11.312H17.444V9.068H17.516C18.404 10.244 19.928 11.192 22.088 11.924L22.46 11.144C20.564 10.64 19.172 9.944 18.272 9.068H21.956V8.276H17.444V7.172H16.604V8.276H12.092ZM11.852 17.048V17.852H22.16V17.048H11.852ZM24.464 9.404V10.148H27.872C27.716 10.412 27.536 10.688 27.344 10.964H23.816V11.732H26.744C25.892 12.74 24.812 13.676 23.504 14.564L23.972 15.308C24.716 14.804 25.388 14.264 26 13.712V18.212H26.828V17.696H32.252V18.212H33.08V12.56H27.128C27.356 12.296 27.572 12.02 27.788 11.732H34.28V10.964H28.316C28.472 10.7 28.628 10.436 28.772 10.148H33.584V9.404H29.12C29.24 9.104 29.36 8.792 29.468 8.468C30.98 8.348 32.3 8.168 33.44 7.916L33.044 7.232C30.8 7.688 27.98 7.916 24.572 7.916L24.824 8.636C26.192 8.636 27.464 8.6 28.64 8.528C28.52 8.816 28.4 9.116 28.268 9.404H24.464ZM26.828 14.744H32.252V15.5H26.828V14.744ZM32.252 14.072H26.828V13.268H32.252V14.072ZM26.828 16.172H32.252V16.988H26.828V16.172ZM35.864 7.676V8.48H40.568V9.524H36.896V14.276H40.412C40.292 14.9 40.076 15.416 39.788 15.824C39.116 15.476 38.492 15.068 37.928 14.6L37.268 15.056C37.856 15.56 38.504 16.004 39.2 16.388C38.432 16.94 37.208 17.276 35.54 17.408L35.912 18.2C37.82 17.984 39.2 17.528 40.04 16.808C41.828 17.624 43.928 18.092 46.34 18.188L46.556 17.36C44.252 17.288 42.26 16.892 40.58 16.184C40.916 15.704 41.144 15.068 41.288 14.276H45.152V9.524H41.432V8.48H46.148V7.676H35.864ZM44.3 13.52H41.396L41.432 12.668V12.248H44.3V13.52ZM40.532 13.52H37.748V12.248H40.568V12.668C40.568 12.956 40.556 13.244 40.532 13.52ZM37.748 11.528V10.268H40.568V11.528H37.748ZM41.432 10.268H44.3V11.528H41.432V10.268ZM52.952 7.16C51.896 8.312 50.3 9.08 48.164 9.488L48.668 10.28C49.952 9.992 51.056 9.572 51.992 9.02H55.496C54.824 10.004 53.852 10.76 52.604 11.264C52.22 10.784 51.812 10.352 51.38 9.944L50.624 10.304C51.032 10.676 51.428 11.096 51.8 11.552C50.936 11.804 49.976 11.96 48.896 12.032L49.268 12.812C52.772 12.536 55.184 11.24 56.48 8.936V8.252H53.036C53.276 8.036 53.504 7.808 53.72 7.568L52.952 7.16ZM52.496 14.66L51.728 15.02C52.172 15.452 52.592 15.944 53 16.484C51.644 16.94 50.024 17.168 48.152 17.18L48.5 18.008C53.156 17.9 56.324 16.436 58.028 13.604V12.92H54.74C55.076 12.668 55.376 12.392 55.664 12.104L54.92 11.696C53.672 13.016 51.74 13.82 49.124 14.084L49.64 14.852C51.092 14.6 52.34 14.216 53.396 13.712H56.948C56.18 14.768 55.136 15.596 53.804 16.172C53.396 15.632 52.952 15.128 52.496 14.66Z" fill="white"/>
<path d="M76.3135 10.6567L70.6566 16.3136L64.9998 10.6567" stroke="white" stroke-width="2"/>
</svg>
