<svg width="180" height="180" viewBox="0 0 180 180" fill="none" xmlns="http://www.w3.org/2000/svg">
<rect width="180" height="180" fill="#F9F9F9"/>
<path fill-rule="evenodd" clip-rule="evenodd" d="M57.7564 101.744V78.7496L87.8077 94.4899V116.769L57.7564 101.744ZM91.5641 116.769V94.6707L104.712 87.7843L104.712 95.3915L108.468 92.5742L108.468 85.8168L121.615 78.9304V101.744L91.5641 116.769ZM107.054 82.3167L117.621 76.7821L89.8585 62.2405L79.5101 67.6608L106.469 81.9333C106.678 82.0438 106.874 82.1725 107.054 82.3167ZM75.4744 69.7746L62.0959 76.7821L89.8585 91.3236L103.089 84.3939L75.4744 69.7746ZM125.717 76.7821L125.372 76.9628V101.744C125.372 103.166 124.568 104.467 123.295 105.103L89.6859 121.908L56.0765 105.103C54.8039 104.467 54 103.166 54 101.744V76.7821V76.6095H54.3295L89.8585 58L125.717 76.7821Z" fill="black"/>
</svg>
