<svg width="105" height="71" viewBox="0 0 105 71" fill="none" xmlns="http://www.w3.org/2000/svg">
<path d="M16.5184 21.2051L14.0147 24.1526C14.8493 24.7421 16.813 26.2159 17.9912 27.395C19.1694 28.5741 18.4821 29.9496 17.9912 30.4899L21.9676 31.5216L24.7658 27.395L20.2003 25.9211L21.9676 23.121L24.7658 21.2051L23.2931 19.7313L27.2695 17.5205L29.6259 14.7203L30.9514 11.7729L29.0368 9.26731L29.6259 6.46723H33.4551L35.8115 5.58296V10.1517L37.5788 11.7729L41.5552 13.2466H45.8262L48.3299 11.7729H53.6318L55.1046 13.2466V15.7521C56.6755 16.145 60.053 16.6952 60.9956 15.7521C61.9381 14.8089 59.9156 13.6888 58.7864 13.2466L59.8174 10.1517C59.2774 9.80777 57.9323 9.32629 56.8719 10.1517C55.8115 10.9771 56.43 8.0393 56.8719 6.46723V3.07742C57.8537 2.88095 60.2887 2.39958 62.1738 2.04588C64.0589 1.69217 63.8429 3.47053 63.4993 4.40393C63.892 4.74781 65.0604 5.46506 66.592 5.58296C68.1237 5.70086 69.783 6.2216 70.4212 6.46723H74.1031L76.1649 10.1517L71.5994 11.7729L74.1031 13.2466L72.9249 15.7521L74.1031 21.2051L70.4212 23.121V27.395V30.4899L74.1031 31.5216L76.1649 29.0161H81.6141L75.4286 37.1219L76.1649 42.8697L78.3741 44.1961V47.5858H81.6141H85.296L87.0633 50.9755L90.1561 53.7757L94.5744 52.7441V55.6916H97.0781L104 58.934H100.318L95.6053 60.113L92.218 57.6076L90.1561 58.934H87.0633H81.6141L79.5523 57.6076L76.1649 60.113H70.4212L68.8012 57.6076L66.0029 58.934L62.1738 55.6916H59.8174H56.8719L55.1046 52.7441L52.4536 53.7757H49.8027L48.3299 55.6916L45.8262 52.7441L44.0589 55.6916L42.5862 52.7441H35.8115L32.1296 60.113V62.0289L33.4551 68.0714H29.6259L27.2695 63.3553H23.2931L20.2003 58.934L17.9912 55.6916H14.0147H9.59647L6.79823 52.7441V49.5017L4 47.5858L5.62003 45.9647H8.41826L11.6583 47.5858V44.1961H16.5184L11.6583 39.6274V36.3851H9.59647V33.5849L5.62003 31.5216L6.79823 27.395L11.6583 23.121V19.7313H14.0147L16.5184 21.2051Z" stroke="black" stroke-width="4"/>
</svg>
