<svg width="24" height="23" viewBox="0 0 24 23" fill="none" xmlns="http://www.w3.org/2000/svg">
<path fill-rule="evenodd" clip-rule="evenodd" d="M18.4859 15.6575C21.0583 11.7748 20.6341 6.49198 17.2132 3.07105C13.3079 -0.83419 6.97626 -0.83419 3.07102 3.07105C-0.834221 6.9763 -0.834221 13.3079 3.07102 17.2132C6.73761 20.8798 12.5431 21.1038 16.4711 17.8854L21.4558 22.87L23.5771 20.7487L18.4859 15.6575ZM15.0918 5.19237C17.8255 7.92604 17.8255 12.3582 15.0918 15.0919C12.3582 17.8255 7.92601 17.8255 5.19234 15.0919C2.45867 12.3582 2.45867 7.92604 5.19234 5.19237C7.92601 2.4587 12.3582 2.4587 15.0918 5.19237Z" fill="#E5E5E5"/>
</svg>
