<svg width="180" height="180" viewBox="0 0 180 180" fill="none" xmlns="http://www.w3.org/2000/svg">
<rect width="180" height="180" fill="#F9F9F9"/>
<path fill-rule="evenodd" clip-rule="evenodd" d="M75.9825 64.9061C75.9825 59.5962 80.287 55.2916 85.5969 55.2916H112.428C117.738 55.2916 122.042 59.5962 122.042 64.9061V115.103C122.042 120.412 117.738 124.717 112.428 124.717H92.8137C92.5853 124.742 92.3533 124.754 92.1184 124.754H66.4798C62.9398 124.754 60.0701 121.885 60.0701 118.345V102.567L58 100.121L75.1588 85.6016C75.421 85.3797 75.6965 85.1822 75.9825 85.0091V64.9061ZM88.7459 118.307H92.1184V101.342L79.2991 90.4946L66.4798 101.342V118.345L88.7459 118.345V118.307ZM112.428 118.307H98.528V102.567L100.598 100.121L83.4393 85.6016C83.1095 85.3225 82.7585 85.0819 82.3921 84.8798V64.9061C82.3921 63.1361 83.827 61.7013 85.5969 61.7013H112.428C114.198 61.7013 115.633 63.1361 115.633 64.9061V115.103C115.633 116.873 114.198 118.307 112.428 118.307ZM88.9136 67.0675H95.3232V73.4771H88.9136V67.0675ZM108.142 67.0675H101.733V73.4771H108.142V67.0675ZM101.733 79.8868H108.142V86.2965H101.733V79.8868ZM108.142 92.7061H101.733V99.1157H108.142V92.7061ZM82.504 102.321H76.0943V108.73H82.504V102.321Z" fill="black"/>
</svg>
