<svg width="60" height="66" viewBox="0 0 60 66" fill="none" xmlns="http://www.w3.org/2000/svg">
<path fill-rule="evenodd" clip-rule="evenodd" d="M16.8006 9.08661C16.8006 4.12569 20.8222 0.104065 25.7831 0.104065H50.8507C55.8116 0.104065 59.8333 4.12569 59.8333 9.08661V55.9839C59.8333 60.9448 55.8116 64.9664 50.8507 64.9664H32.5257C32.3123 64.9894 32.0955 65.0013 31.8759 65.0013H7.92244C4.61514 65.0013 1.93407 62.3202 1.93407 59.0129V44.2723L0 41.9866L16.031 28.4219C16.276 28.2146 16.5334 28.0301 16.8006 27.8683V9.08661ZM28.7251 58.9781H31.8759V43.1275L19.8992 32.9933L7.92244 43.1275V59.0129L28.7251 59.0129V58.9781ZM50.8507 58.9781H37.8643V44.2723L39.7983 41.9866L23.7673 28.4219C23.4592 28.1611 23.1312 27.9364 22.789 27.7476V9.08661C22.789 7.43297 24.1295 6.09243 25.7831 6.09243H50.8507C52.5044 6.09243 53.8449 7.43297 53.8449 9.08661V55.9839C53.8449 57.6375 52.5044 58.9781 50.8507 58.9781ZM28.8817 11.106H34.8701V17.0943H28.8817V11.106ZM46.8468 11.106H40.8585V17.0943H46.8468V11.106ZM40.8585 23.0828H46.8468V29.0711H40.8585V23.0828ZM46.8468 35.0594H40.8585V41.0478H46.8468V35.0594ZM22.8935 44.042H16.9051V50.0304H22.8935V44.042Z" fill="black"/>
</svg>
